PathFileType	4	(X/Y/Z)	RBDS028\RBDS028runT45.trc
DataRate	CameraRate	NumFrames	NumMarkers	Units	OrigDataRate	OrigDataStartFrame	OrigNumFrames
150.000000	150.000000	4	33	mm	150.000000	1125	4500
Frame#	Time	L.ASIS			L.Heel.Bottom			L.Heel.Lateral			L.Heel.Top			L.Iliac.Crest			L.MT1			L.MT5			L.PSIS			L.Shank.Bottom.Lateral			L.Shank.Bottom.Medial			L.Shank.Top.Lateral			L.Shank.Top.Medial			L.Thigh.Bottom.Lateral			L.Thigh.Bottom.Medial			L.Thigh.Top.Lateral			L.Thigh.Top.Medial			R.ASIS			R.ASY			R.Heel.Bottom			R.Heel.Lateral			R.Heel.Top			R.Iliac.Crest			R.MT1			R.MT5			R.PSIS			R.Shank.Bottom.Lateral			R.Shank.Bottom.Medial			R.Shank.Top.Lateral			R.Shank.Top.Medial			R.Thigh.Bottom.Lateral			R.Thigh.Bottom.Medial			R.Thigh.Top.Lateral			R.Thigh.Top.Medial			
		X1	Y1	Z1	X2	Y2	Z2	X3	Y3	Z3	X4	Y4	Z4	X5	Y5	Z5	X6	Y6	Z6	X7	Y7	Z7	X8	Y8	Z8	X9	Y9	Z9	X10	Y10	Z10	X11	Y11	Z11	X12	Y12	Z12	X13	Y13	Z13	X14	Y14	Z14	X15	Y15	Z15	X16	Y16	Z16	X17	Y17	Z17	X18	Y18	Z18	X19	Y19	Z19	X20	Y20	Z20	X21	Y21	Z21	X22	Y22	Z22	X23	Y23	Z23	X24	Y24	Z24	X25	Y25	Z25	X26	Y26	Z26	X27	Y27	Z27	X28	Y28	Z28	X29	Y29	Z29	X30	Y30	Z30	X31	Y31	Z31	X32	Y32	Z32	X33	Y33	Z33	

1126	7.500000000000001	1911.560622629355	842.0472117703313	886.0953165640154	1526.949522579457	68.27145494965123	996.0121661943172	1560.268823897295	78.20343203705242	952.5687399387451	1547.688884245127	108.9550487442913	996.9667897922566	1831.131447791131	879.8622618504129	865.6909663835653	1740.844500815513	32.90916143804704	1037.838026260011	1701.490965853367	34.94558980401666	928.3294593639474	1762.849878142032	857.2012826879694	974.1602204605595	1656.167613602006	167.6134850045159	932.7321615781725	1624.386793837189	194.7315195600523	961.950872187303	1688.969732225847	234.6218537716032	901.2923170136269	1664.125576581793	265.422564289982	937.276814749759	1852.507153464052	506.0597717437898	847.112553374594	1787.582183971758	505.5166713566018	879.2937934487225	1844.78335363211	615.5210575243774	834.909895309319	1784.227004859954	614.3351182803575	869.1443460270209	1926.807906405322	834.3669788393346	1128.122374693587	1817.727925298105	216.5512619582703	1072.711589162168	1703.128314713272	365.2174396004842	1046.709323408159	1728.944392461239	345.3718298091899	1092.209890705617	1748.546031515594	371.1800393124998	1049.342484655542	1863.395836832986	888.0886763867393	1151.360165069957	1792.382040734492	164.0535795219701	1024.131246296033	1763.76757586441	197.9522458783339	1129.57924913119	1771.346030002859	851.0557390533578	1062.603744381281	1847.579742398631	356.9688953103689	1119.296744846921	1835.388930568074	393.4520138668025	1079.48722027333	1910.298610929933	404.1496214982182	1140.426435687576	1898.366032897881	437.9193866941148	1100.336514425932	2059.057489694754	554.0818408509824	1186.393211015054	2017.879778869686	513.5475013922853	1143.96196821264	1980.867797541169	632.6161647447408	1186.761306901207	1938.925641916293	590.7857398543892	1152.294792791434	
1127	7.506666666666667	1912.361899897553	843.1672968183963	885.439489863141	1500.028128269297	77.99617766271028	996.0940259133966	1533.540134861626	85.57199511174323	952.3691222312019	1522.544579308947	117.6452932209914	996.4012189146113	1834.188415681445	883.8262892863883	864.8949464579202	1711.226455510308	32.50809106982334	1037.640833375451	1671.883759449584	35.21698828382045	928.1277493665618	1763.760767176294	860.3880449877608	972.4920584365891	1630.584767188144	175.0030699079795	932.3266615550338	1599.946012980236	202.0100317531597	962.7262241123417	1664.101783355643	241.9859564862462	901.7651793308587	1640.334782452091	272.5119976256547	938.7179005006207	1836.507528233626	509.157573061571	848.0434000077952	1772.171395927842	512.1924867617006	881.0331109805251	1834.281812062402	618.7717514596729	835.0553543568203	1774.393314525013	620.9581348595718	870.2843257030274	1926.98481081608	838.8566253839831	1127.305548926875	1849.364714049339	202.6675541948605	1075.545866217775	1721.452062792561	340.5644461272678	1046.791846512497	1748.552507713268	323.5854806942314	1092.506347763606	1766.274674694547	350.6552492456369	1049.366313484426	1863.382786646398	892.4755482042797	1150.576978516143	1828.906305694526	147.4020039299203	1027.999865427608	1796.200490049355	179.914024665395	1132.461118569559	1771.705257638636	854.4546381384373	1061.210566551257	1866.726064311565	346.1132892317483	1119.231103510526	1851.458422845264	380.8353417647385	1078.713421218622	1925.302384978752	398.8742135634714	1139.076236091023	1910.417483159656	430.9609200653777	1098.445480677912	2066.053891098697	564.2321947867133	1183.632325923111	2026.076837375252	522.3678665100089	1141.057102173586	1985.303690459536	640.1182640615961	1184.836372411332	1944.707546560397	597.0211813382788	1150.220901562629	
1128	7.513333333333334	1913.184527233546	844.2700106732105	884.5848693409388	1474.470187952273	89.09842674454443	995.9492073924871	1508.018045920197	94.01468862130926	951.9739200046188	1498.950854636906	127.4113407586066	995.5637805235958	1838.18640040075	887.8331600597381	864.1163065365428	1682.107414010952	32.17225105624795	1037.410152662982	1642.727981685291	35.68205096590667	927.8338330204817	1764.880490747586	863.6847969438064	971.0054420632357	1606.253201908466	183.1454266792433	931.6686364187514	1576.728354588121	209.8443874474188	963.3312634708055	1640.357532697499	250.262221044384	902.1711715911081	1617.5544351856	280.3244746901391	940.1173913847871	1820.780360957021	513.17048719611	849.0528323663608	1757.466034275828	519.7531270932202	883.2913561882571	1823.942225156298	622.6505427826446	835.2787901534554	1765.128894798014	628.1601471553342	871.8486775792935	1927.741856624756	843.5396417932415	1125.974736460028	1882.050615137155	189.5671888833593	1078.452768209424	1741.819054098043	315.2148661019251	1046.497848768285	1769.806432647056	301.486507640079	1092.536782586734	1785.623731687122	329.4358803088017	1049.020466797376	1864.527815871787	897.416616791905	1149.731930664889	1866.861255454151	131.8072861878597	1032.155732343874	1830.019572428718	163.0221418034793	1135.513293511297	1772.433523673107	858.188707609793	1060.111145806509	1886.374612191749	334.9641395220463	1118.977120643924	1868.247575428128	367.5747110395525	1077.688263848592	1940.197162144062	393.0416148969412	1137.567615232013	1922.593746809054	423.1042887265742	1096.334625602562	2071.860363181068	573.7003302249926	1180.547948113214	2032.754880446103	530.7255859571443	1138.045963709158	1989.120521407109	647.3415675870878	1182.756956590031	1949.603422442401	603.2514114575089	1148.113201663278	
1129	7.52	1914.003938974202	845.3568276769491	883.5893336135488	1450.533245593684	101.578977455795	995.5943201204371	1483.888342964091	103.5682670313052	951.3890195704638	1477.120236698041	138.2264060303185	994.443952721446	1842.970299384456	891.7756175490202	863.3909851427534	1653.578092196397	32.03070836594355	1037.088681210802	1614.068946312039	36.48372691727128	927.4418456222436	1766.155025571284	867.0931029150964	969.721148863539	1583.384073740949	191.9324179950972	930.7258310065321	1554.935416138936	218.1551033404784	963.6976052336933	1618.002494315465	259.3091172755605	902.4627753994739	1596.046635895535	288.7506009656691	941.3939704115302	1805.646509250112	518.0093426635517	850.0794576705231	1743.699450584428	528.0167218296142	885.8921690416817	1814.001242826884	627.1036340186068	835.5735714898133	1756.60361817823	635.7981492496313	873.7486306129329	1928.98751726493	848.2924333818535	1124.188088409775	1915.650907909384	177.5265671658944	1081.23654810445	1764.311169064115	289.4987645309114	1046.100572564004	1792.8306361639	279.3222689770496	1092.498437199024	1806.648466964838	307.7946592707809	1048.524090508536	1866.598934702615	902.7805030543002	1148.855722710817	1906.04547870904	117.6790451231785	1036.30112910203	1865.236337595827	147.5433104247457	1138.583898600238	1773.469342647473	862.2321976659305	1059.308363664165	1906.585599469325	323.6268578001876	1118.617177775966	1885.83695665734	353.8274248522814	1076.551171741054	1955.104106850026	386.6275647146338	1136.008084012499	1935.043373847814	414.3781431198969	1094.157325714384	2076.555988914001	582.2292111164072	1177.173090667754	2037.914428831475	538.3299235120288	1135.08481413295	1992.379580409256	654.1016600648919	1180.550880613837	1953.593492860461	609.2600636347561	1146.113728572005	
